<svg xmlns="http://www.w3.org/2000/svg" version="1.1" xmlns:xlink="http://www.w3.org/1999/xlink" xmlns:svgjs="http://svgjs.dev/svgjs" width="2000" height="702" viewBox="0 0 2000 702"><g transform="matrix(1,0,0,1,-1.2121212121212466,-2.041805779620802)"><svg viewBox="0 0 396 139" data-background-color="#ffffff" preserveAspectRatio="xMidYMid meet" height="702" width="2000" xmlns="http://www.w3.org/2000/svg" xmlns:xlink="http://www.w3.org/1999/xlink"><g id="tight-bounds" transform="matrix(1,0,0,1,0.2400000000000091,0.4042891785858842)"><svg viewBox="0 0 395.52 138.19142164282823" height="138.19142164282823" width="395.52"><g><svg viewBox="0 0 653.47028542969 228.31712111871363" height="138.19142164282823" width="395.52"><g transform="matrix(1,0,0,1,257.95028542969,59.63897057676718)"><svg viewBox="0 0 395.52 109.03917996517927" height="109.03917996517927" width="395.52"><g id="textblocktransform"><svg viewBox="0 0 395.52 109.03917996517927" height="109.03917996517927" width="395.52" id="textblock"><g><svg viewBox="0 0 395.52 62.76191631291692" height="62.76191631291692" width="395.52"><g transform="matrix(1,0,0,1,0,0)"><svg width="395.52" viewBox="4 -38.7 247.33 39.25" height="62.76191631291692" data-palette-color="#b10dc9"><g class="wordmark-text-0" data-fill-palette-color="primary" id="text-0"><path d="M14.25 0.55L14.25 0.55Q10.7 0.55 4 0L4 0 4.6-12.15 4-34.5 17.35-34.5Q24.1-34.5 27.9-30.45 31.7-26.4 31.7-19.2L31.7-19.2Q31.7-10.1 27-4.78 22.3 0.55 14.25 0.55ZM15.55-29.1L15.55-29.1Q12.25-29.1 10.9-29.05L10.9-29.05 10.4-13 10.75-4.9Q14.95-4.6 16.4-4.6L16.4-4.6Q20.35-4.6 22.63-7.8 24.9-11 24.9-17.1 24.9-23.2 22.68-26.15 20.45-29.1 15.55-29.1ZM35.55-24.15L35.55-24.15 41.6-25.45Q42.05-21.6 42.2-18.15L42.2-18.15Q46.75-25.2 50.75-25.2L50.75-25.2 50.2-17.4Q47.3-17.4 45.62-16.88 43.95-16.35 42.2-14.8L42.2-14.8 42.2-13 42.75-1.25 36.05 0 36.65-12.15Q36.45-18.85 35.55-24.15ZM62.9-5.1L62.9-5.1Q64.34-5.1 65.95-5.85 67.55-6.6 68.45-7.35L68.45-7.35 69.34-8.1 71.65-5.3Q71.15-4.45 70.09-3.35 69.05-2.25 67.97-1.48 66.9-0.7 65.12-0.08 63.35 0.55 61.45 0.55L61.45 0.55Q57.4 0.55 54.85-2.53 52.3-5.6 52.3-10.45L52.3-10.45Q52.3-16.55 55.85-21.15 59.4-25.75 64.15-25.75L64.15-25.75Q67.8-25.75 69.82-23.7 71.84-21.65 71.84-17.95L71.84-17.95Q71.84-15.75 71.09-12.95L71.09-12.95 70.09-11.9 57.6-10.75Q58.45-5.1 62.9-5.1ZM62.9-20.6L62.9-20.6Q60.7-20.6 59.2-18.82 57.7-17.05 57.45-14.3L57.45-14.3 65.95-15.35Q66.09-16.5 66.09-17.25L66.09-17.25Q66.09-20.6 62.9-20.6ZM81.19 0Q78.24 0 76.37-1.88 74.49-3.75 74.49-6.93 74.49-10.1 77.39-12.43 80.29-14.75 84.44-14.75L84.44-14.75 87.84-14.75 87.84-15.6Q87.84-18.05 86.84-18.95 85.84-19.85 83.09-19.85L83.09-19.85Q81.94-19.85 80.37-19.38 78.79-18.9 76.84-17.9L76.84-17.9 75.39-21.85Q77.54-23.35 80.62-24.55 83.69-25.75 85.69-25.75L85.69-25.75Q93.54-25.75 93.54-18.15L93.54-18.15 93.54-8.35Q93.54-5.55 95.29-2.1L95.29-2.1 89.99 0.15Q88.74-2.25 88.14-4.15L88.14-4.15Q85.39 0 81.19 0L81.19 0ZM83.29-5.1L83.29-5.1Q85.29-5.1 87.84-7.15L87.84-7.15 87.84-10.5Q85.19-11.1 83.54-11.1L83.54-11.1Q80.39-11.1 80.39-8.3L80.39-8.3Q80.39-6.85 81.19-5.98 81.99-5.1 83.29-5.1ZM114.14-12.65Q114.14-16.1 113.54-17.25 112.94-18.4 110.74-18.4 108.54-18.4 105.74-16.65L105.74-16.65 105.74-13 106.29-1.25 99.59 0 100.19-12.15Q99.99-18.85 99.09-24.15L99.09-24.15 105.14-25.45Q105.49-22.55 105.64-19.8L105.64-19.8Q106.39-20.8 107.34-21.78 108.29-22.75 110.34-23.98 112.39-25.2 114.49-25.2 116.59-25.2 118.04-23.85 119.49-22.5 119.89-20.15L119.89-20.15Q124.04-25.2 128.29-25.2L128.29-25.2Q130.94-25.2 132.49-23.43 134.04-21.65 134.04-18.6L134.04-18.6 133.74-13 134.29-1 127.54 0.25 128.14-12.65Q128.14-16.1 127.54-17.25 126.94-18.4 124.79-18.4 122.64-18.4 119.94-16.75L119.94-16.75 119.74-13 120.29-1 113.54 0.25 114.14-12.65ZM151.14 0.55L151.14 0.55Q147.59 0.55 140.89 0L140.89 0 141.49-12.15 140.89-34.5 154.24-34.5Q160.99-34.5 164.79-30.45 168.59-26.4 168.59-19.2L168.59-19.2Q168.59-10.1 163.89-4.78 159.19 0.55 151.14 0.55ZM152.44-29.1L152.44-29.1Q149.14-29.1 147.79-29.05L147.79-29.05 147.29-13 147.64-4.9Q151.84-4.6 153.29-4.6L153.29-4.6Q157.24-4.6 159.51-7.8 161.79-11 161.79-17.1 161.79-23.2 159.56-26.15 157.34-29.1 152.44-29.1ZM193.54-14.4L195.29-6.25 195.94-6.25 197.54-13.1 200.14-25.45 206.24-24.7 202.59-12.3 199.54-0.6 191.34 0.15 188.59-12 188.34-12.8 184.99-0.6 177.04 0.15 174.14-12 170.69-24.15 177.24-25.4 179.29-14.4 181.09-6.25 181.74-6.25 186.04-20.5 184.99-24.15 191.44-25.4 193.54-14.4ZM218.53-5.1L218.53-5.1Q219.98-5.1 221.58-5.85 223.18-6.6 224.08-7.35L224.08-7.35 224.98-8.1 227.28-5.3Q226.78-4.45 225.73-3.35 224.68-2.25 223.61-1.48 222.53-0.7 220.76-0.08 218.98 0.55 217.08 0.55L217.08 0.55Q213.03 0.55 210.48-2.53 207.93-5.6 207.93-10.45L207.93-10.45Q207.93-16.55 211.48-21.15 215.03-25.75 219.78-25.75L219.78-25.75Q223.43-25.75 225.46-23.7 227.48-21.65 227.48-17.95L227.48-17.95Q227.48-15.75 226.73-12.95L226.73-12.95 225.73-11.9 213.23-10.75Q214.08-5.1 218.53-5.1ZM218.53-20.6L218.53-20.6Q216.33-20.6 214.83-18.82 213.33-17.05 213.08-14.3L213.08-14.3 221.58-15.35Q221.73-16.5 221.73-17.25L221.73-17.25Q221.73-20.6 218.53-20.6ZM231.83-37.45L238.68-38.7 238.03-13 238.58-1.25 231.83 0 232.43-12.15 231.83-37.45ZM244.48-37.45L251.33-38.7 250.68-13 251.23-1.25 244.48 0 245.08-12.15 244.48-37.45Z" fill="#b10dc9" data-fill-palette-color="primary"></path></g></svg></g></svg></g><g transform="matrix(1,0,0,1,0,77.57849846840509)"><svg viewBox="0 0 232.209792 31.46068149677419" height="31.46068149677419" width="232.209792"><g transform="matrix(1,0,0,1,0,0)"><svg width="232.209792" viewBox="2.15 -34 255.72 34.65" height="31.46068149677419" data-palette-color="#ff851b"><path d="M5.2 0.5L5.2 0.5Q4.6 0.5 3.98 0.3 3.35 0.1 2.93-0.65 2.5-1.4 2.5-2.95L2.5-2.95Q2.5-3.95 2.7-5.58 2.9-7.2 3.25-9.8L3.25-9.8Q3.5-11.45 3.83-14.23 4.15-17 4.15-20.05L4.15-20.05Q4.15-21.4 4.05-22.93 3.95-24.45 3.65-25.7L3.65-25.7Q3.05-25.55 2.75-25.55L2.75-25.55Q2.45-25.55 2.3-25.73 2.15-25.9 2.15-26.4L2.15-26.4Q2.15-27.4 2.38-28.43 2.6-29.45 3.1-30.15L3.1-30.15Q3.6-30.85 4.28-31.15 4.95-31.45 5.7-31.55L5.7-31.55Q6.95-31.7 8.88-31.83 10.8-31.95 12.93-32.05 15.05-32.15 16.8-32.15L16.8-32.15Q19.15-32.15 20.28-32.1 21.4-32.05 22-31.95L22-31.95Q23.3-31.75 23.3-30.55L23.3-30.55Q23.3-29.7 22.98-29.03 22.65-28.35 22.2-27.8L22.2-27.8Q21.65-27 21.03-26.68 20.4-26.35 19.4-26.45L19.4-26.45Q18.55-26.55 17.07-26.63 15.6-26.7 13.7-26.7L13.7-26.7Q12.9-26.7 11.6-26.65 10.3-26.6 8.85-26.5L8.85-26.5Q8.8-24.8 8.55-22.63 8.3-20.45 8-18.2L8-18.2Q9.35-18.3 11.25-18.38 13.15-18.45 15.15-18.5 17.15-18.55 18.7-18.55L18.7-18.55Q19.6-18.55 20-18.32 20.4-18.1 20.4-17.35L20.4-17.35Q20.4-16.5 19.98-15.53 19.55-14.55 18.88-13.85 18.2-13.15 17.45-13.2L17.45-13.2Q16.2-13.3 13.93-13.35 11.65-13.4 9.15-13.4L9.15-13.4 7.55-13.4Q7.45-12.3 7.38-11.23 7.3-10.15 7.3-9.25L7.3-9.25Q7.3-7.5 7.65-6.18 8-4.85 9-3.9L9-3.9Q9.65-3.25 9.65-2.4L9.65-2.4Q9.65-1.3 8.4-0.4 7.15 0.5 5.2 0.5ZM27.8-24.85L27.8-24.85Q26.4-24.9 25.55-25.7 24.7-26.5 24.7-27.95L24.7-27.95Q24.75-29.5 25.75-30.48 26.75-31.45 28.3-31.4L28.3-31.4Q29.75-31.35 30.57-30.55 31.4-29.75 31.35-28.3L31.35-28.3Q31.3-26.8 30.35-25.83 29.4-24.85 27.8-24.85ZM27.85 0.5L27.85 0.5Q26.35 0.5 25.5-0.33 24.65-1.15 24.65-3.15L24.65-3.15Q24.65-4.3 24.87-5.4 25.1-6.5 25.4-7.55L25.4-7.55Q25.75-8.65 25.97-9.8 26.2-10.95 26.2-12.25L26.2-12.25Q26.2-13.15 25.95-13.98 25.7-14.8 24.85-15.2L24.85-15.2Q24.2-15.55 23.72-15.93 23.25-16.3 23.25-16.9L23.25-16.9Q23.25-17.6 23.9-18.4 24.55-19.2 25.62-19.78 26.7-20.35 27.85-20.35L27.85-20.35Q29.1-20.35 29.67-19.7 30.25-19.05 30.45-18.05 30.65-17.05 30.65-16L30.65-16Q30.65-14.4 30.4-12.88 30.15-11.35 29.9-10.05L29.9-10.05Q29.7-9.1 29.6-8.3 29.5-7.5 29.5-6.8L29.5-6.8Q29.5-5.55 30.1-4.93 30.7-4.3 31.8-3.75L31.8-3.75Q32.25-3.5 32.25-3L32.25-3Q32.25-2.6 31.85-1.75 31.45-0.9 30.47-0.2 29.5 0.5 27.85 0.5ZM38.8 0.55L38.8 0.55Q37 0.55 37.2-0.65L37.2-0.65Q37.75-2.8 38.12-5.03 38.5-7.25 38.5-9.3L38.5-9.3Q38.5-11.95 38.17-13.18 37.85-14.4 37.3-14.88 36.75-15.35 35.95-15.6L35.95-15.6Q35.6-15.75 35.32-16 35.05-16.25 35.05-16.7L35.05-16.7Q35.05-17.4 35.6-18.25 36.15-19.1 37.17-19.73 38.2-20.35 39.5-20.35L39.5-20.35Q41.2-20.35 41.85-19.18 42.5-18 42.5-16.1L42.5-16.1Q42.5-14.85 42.25-13.3 42-11.75 41.75-10.5L41.75-10.5 41.9-10.45Q42.9-13.1 44.32-15.38 45.75-17.65 47.65-19.05 49.55-20.45 52.05-20.45L52.05-20.45Q54.7-20.45 56.1-18.85 57.5-17.25 57.5-14.85L57.5-14.85Q57.5-13.85 57.27-12.95 57.05-12.05 56.8-11.2L56.8-11.2Q56.55-10.4 56.37-9.55 56.2-8.7 56.2-7.85L56.2-7.85Q56.2-5 58.9-4L58.9-4Q59.6-3.7 59.6-3.1L59.6-3.1Q59.6-2.65 59.3-1.8 59-0.95 58.2-0.23 57.4 0.5 55.85 0.5L55.85 0.5Q53.85 0.5 52.75-0.93 51.65-2.35 51.65-4.55L51.65-4.55Q51.65-5.8 51.92-7.08 52.2-8.35 52.5-9.45L52.5-9.45Q52.7-10.3 52.87-11.13 53.05-11.95 53.05-12.6L53.05-12.6Q53.05-14.9 50.65-14.9L50.65-14.9Q48.6-14.9 47.05-13.38 45.5-11.85 44.4-9.55 43.3-7.25 42.6-4.9L42.6-4.9 42.6-3.7Q42.6-1.85 41.57-0.65 40.55 0.55 38.8 0.55ZM69.04 0.65L69.04 0.65Q66.04 0.65 64.32-1.35 62.59-3.35 62.59-6.8L62.59-6.8Q62.59-9.35 63.42-11.8 64.24-14.25 65.74-16.2 67.24-18.15 69.24-19.3 71.24-20.45 73.59-20.45L73.59-20.45Q75.09-20.45 76.27-20 77.44-19.55 78.34-18.85L78.34-18.85Q78.29-22.25 77.99-24.95 77.69-27.65 76.54-29.95L76.54-29.95Q76.34-30.35 76.22-30.68 76.09-31 76.09-31.3L76.09-31.3Q76.09-32 76.67-32.6 77.24-33.2 78.09-33.6 78.94-34 79.69-34L79.69-34Q81.04-34 81.72-32.83 82.39-31.65 82.59-29.63 82.79-27.6 82.79-25L82.79-25Q82.79-21.2 82.44-18.15 82.09-15.1 81.79-12.8L81.79-12.8Q81.59-11.3 81.44-10.2 81.29-9.1 81.29-8.4L81.29-8.4Q81.29-4.85 84.34-4.2L84.34-4.2Q85.14-4.05 85.14-3.15L85.14-3.15Q85.14-2.6 84.82-1.75 84.49-0.9 83.64-0.23 82.79 0.45 81.19 0.45L81.19 0.45Q79.04 0.45 78.29-1 77.54-2.45 77.54-5.4L77.54-5.4Q76.14-2.85 73.99-1.1 71.84 0.65 69.04 0.65ZM70.59-4.7L70.59-4.7Q71.99-4.7 73.39-5.6 74.79-6.5 75.89-8.05L75.89-8.05Q76.54-9 77.07-10.23 77.59-11.45 78.04-12.7L78.04-12.7Q75.49-15 72.39-15L72.39-15Q69.69-15 68.09-13.38 66.49-11.75 66.49-9.35L66.49-9.35Q66.49-7.3 67.69-6 68.89-4.7 70.59-4.7ZM112.19 0.65L112.19 0.65Q107.84 0.65 105.16-1.68 102.49-4 102.49-8L102.49-8Q102.49-11.75 104.71-14.4 106.94-17.05 110.59-18.7L110.59-18.7Q110.04-20.2 109.66-21.65 109.29-23.1 109.29-24.55L109.29-24.55Q109.29-27.05 110.39-28.78 111.49-30.5 113.24-31.4 114.99-32.3 116.94-32.3L116.94-32.3Q118.79-32.3 120.31-31.55 121.84-30.8 122.79-29.4 123.74-28 123.74-26.05L123.74-26.05Q123.74-24 122.66-22.38 121.59-20.75 119.76-19.48 117.94-18.2 115.69-17.2L115.69-17.2Q116.99-14.95 118.74-12.58 120.49-10.2 122.29-8.45L122.29-8.45Q123.64-9.65 124.49-10.95 125.34-12.25 125.34-13.6L125.34-13.6Q125.34-14.6 124.86-14.93 124.39-15.25 123.89-15.4L123.89-15.4Q123.29-15.6 122.96-15.83 122.64-16.05 122.64-16.6L122.64-16.6Q122.64-17.5 123.24-18.53 123.84-19.55 124.79-20.3 125.74-21.05 126.84-21.05L126.84-21.05Q127.84-21.05 128.64-20.13 129.44-19.2 129.44-16.65L129.44-16.65Q129.44-14.1 128.41-11.5 127.39-8.9 125.14-6.35L125.14-6.35Q126.44-5.5 127.64-5.5L127.64-5.5Q128.54-5.5 128.99-5.8 129.44-6.1 129.79-6.45L129.79-6.45Q130.04-6.7 130.29-6.85 130.54-7 130.89-7L130.89-7Q132.24-7 132.24-4.95L132.24-4.95Q132.24-3.8 131.66-2.53 131.09-1.25 129.89-0.4 128.69 0.45 126.74 0.45L126.74 0.45Q124.99 0.45 123.61-0.3 122.24-1.05 120.94-2.35L120.94-2.35Q118.94-0.9 116.81-0.13 114.69 0.65 112.19 0.65ZM114.19-20.15L114.19-20.15Q116.29-21.15 117.61-22.3 118.94-23.45 118.94-24.8L118.94-24.8Q118.94-25.8 118.24-26.48 117.54-27.15 116.24-27.15L116.24-27.15Q114.89-27.15 114.09-26.28 113.29-25.4 113.29-23.9L113.29-23.9Q113.29-23.2 113.51-22.2 113.74-21.2 114.19-20.15ZM112.94-4.65L112.94-4.65Q114.09-4.65 115.41-4.9 116.74-5.15 117.89-5.65L117.89-5.65Q116.94-6.9 115.76-8.75 114.59-10.6 113.56-12.5 112.54-14.4 111.94-15.7L111.94-15.7Q109.59-14.6 108.26-12.98 106.94-11.35 106.94-9.45L106.94-9.45Q106.94-7.3 108.59-5.98 110.24-4.65 112.94-4.65ZM157.58 0.65L157.58 0.65Q155.13 0.65 153.06-0.08 150.98-0.8 149.73-2.1 148.48-3.4 148.48-5.15L148.48-5.15Q148.48-6.3 149.03-7.18 149.58-8.05 150.53-8.05L150.53-8.05Q151.13-8.05 151.78-7.6L151.78-7.6Q153.03-6.5 155.01-5.68 156.98-4.85 159.23-4.85L159.23-4.85Q162.18-4.85 164.06-6.03 165.93-7.2 165.93-9.2L165.93-9.2Q165.93-11.1 164.18-11.95 162.43-12.8 159.33-13.55L159.33-13.55Q157.03-14.1 154.91-14.95 152.78-15.8 151.41-17.32 150.03-18.85 150.03-21.4L150.03-21.4Q150.03-23.35 150.88-25.28 151.73-27.2 153.38-28.8 155.03-30.4 157.38-31.38 159.73-32.35 162.68-32.35L162.68-32.35Q164.88-32.35 166.71-31.85 168.53-31.35 169.61-30.45 170.68-29.55 170.68-28.25L170.68-28.25Q170.68-27.25 170.13-26.5 169.58-25.75 168.83-25.33 168.08-24.9 167.53-24.9L167.53-24.9Q167.03-24.9 166.18-25.35L166.18-25.35Q164.78-26.1 163.06-26.53 161.33-26.95 160.03-26.95L160.03-26.95Q157.58-26.95 156.06-25.88 154.53-24.8 154.53-23.35L154.53-23.35Q154.53-21.75 156.46-20.68 158.38-19.6 163.38-18.4L163.38-18.4Q166.78-17.5 168.68-15.93 170.58-14.35 170.58-10.95L170.58-10.95Q170.58-7.9 168.96-5.25 167.33-2.6 164.41-0.98 161.48 0.65 157.58 0.65ZM182.23 0.65L182.23 0.65Q178.43 0.65 176.31-1.53 174.18-3.7 174.18-7.6L174.18-7.6Q174.18-11.15 175.73-14.05 177.28-16.95 179.91-18.68 182.53-20.4 185.68-20.4L185.68-20.4Q188.68-20.4 190.48-18.93 192.28-17.45 192.28-15L192.28-15Q192.28-13.05 191.08-11.4 189.88-9.75 187.88-8.78 185.88-7.8 183.43-7.8L183.43-7.8Q180.43-7.8 178.53-9.15L178.53-9.15Q178.58-6.85 180.11-5.45 181.63-4.05 184.03-4.05L184.03-4.05Q185.48-4.05 187.01-4.58 188.53-5.1 189.63-6L189.63-6Q190.33-6.6 190.93-6.6L190.93-6.6Q191.43-6.6 191.76-6.28 192.08-5.95 192.08-5.45L192.08-5.45Q192.08-4.35 190.18-2.55L190.18-2.55Q186.83 0.65 182.23 0.65ZM182.98-11.1L182.98-11.1Q184.78-11.1 185.98-11.85 187.18-12.6 187.18-13.75L187.18-13.75Q187.18-14.7 186.38-15.23 185.58-15.75 184.18-15.75L184.18-15.75Q182.33-15.75 180.96-14.78 179.58-13.8 178.98-12.05L178.98-12.05Q179.68-11.6 180.78-11.35 181.88-11.1 182.98-11.1ZM203.43 0.65L203.43 0.65Q200.38 0.65 199.05-1.38 197.73-3.4 197.73-6.6L197.73-6.6Q197.73-7.75 197.85-8.85 197.98-9.95 198.13-11.05L198.13-11.05Q198.28-12.15 198.43-13.2 198.58-14.25 198.68-15.2L198.68-15.2Q197.63-14.9 196.58-14.9L196.58-14.9Q195.48-14.9 195.48-15.8L195.48-15.8Q195.48-16.75 196.33-18.13 197.18-19.5 198.45-20.85 199.73-22.2 201-23.13 202.28-24.05 203.18-24.05L203.18-24.05Q204.28-24.05 204.28-22.15L204.28-22.15Q204.28-21.65 204.2-21.13 204.13-20.6 204.03-20.05L204.03-20.05Q204.98-20.25 205.95-20.4 206.93-20.55 207.83-20.55L207.83-20.55Q208.98-20.55 209.6-20.15 210.23-19.75 210.23-18.6L210.23-18.6Q210.23-17.4 209.65-16.2 209.08-15 208.38-15L208.38-15Q208.23-15 207.88-15.05 207.53-15.1 207.03-15.2L207.03-15.2Q206.38-15.35 205.38-15.5 204.38-15.65 202.98-15.65L202.98-15.65Q202.63-14.1 202.35-12.48 202.08-10.85 202.08-9.55L202.08-9.55Q202.08-6.65 203.53-5.6 204.98-4.55 207.73-4.55L207.73-4.55Q208.58-4.55 208.93-4.28 209.28-4 209.28-3.3L209.28-3.3Q209.28-1.65 207.58-0.5 205.88 0.65 203.43 0.65ZM219.63 0.65L219.63 0.65Q216.58 0.65 215.25-1.38 213.93-3.4 213.93-6.6L213.93-6.6Q213.93-7.75 214.05-8.85 214.18-9.95 214.33-11.05L214.33-11.05Q214.48-12.15 214.63-13.2 214.78-14.25 214.88-15.2L214.88-15.2Q213.83-14.9 212.78-14.9L212.78-14.9Q211.68-14.9 211.68-15.8L211.68-15.8Q211.68-16.75 212.53-18.13 213.38-19.5 214.65-20.85 215.93-22.2 217.2-23.13 218.48-24.05 219.38-24.05L219.38-24.05Q220.48-24.05 220.48-22.15L220.48-22.15Q220.48-21.65 220.4-21.13 220.33-20.6 220.23-20.05L220.23-20.05Q221.18-20.25 222.15-20.4 223.13-20.55 224.03-20.55L224.03-20.55Q225.18-20.55 225.8-20.15 226.43-19.75 226.43-18.6L226.43-18.6Q226.43-17.4 225.85-16.2 225.28-15 224.58-15L224.58-15Q224.43-15 224.08-15.05 223.73-15.1 223.23-15.2L223.23-15.2Q222.58-15.35 221.58-15.5 220.58-15.65 219.18-15.65L219.18-15.65Q218.83-14.1 218.55-12.48 218.28-10.85 218.28-9.55L218.28-9.55Q218.28-6.65 219.73-5.6 221.18-4.55 223.93-4.55L223.93-4.55Q224.78-4.55 225.13-4.28 225.48-4 225.48-3.3L225.48-3.3Q225.48-1.65 223.78-0.5 222.08 0.65 219.63 0.65ZM232.27 0.5L232.27 0.5Q230.82 0.5 230.12-0.3 229.42-1.1 229.42-3.1L229.42-3.1Q229.42-4.05 229.57-5.55 229.72-7.05 229.92-8.8L229.92-8.8Q230.22-10.95 230.45-13.3 230.67-15.65 230.67-17.8L230.67-17.8Q230.67-20.85 230.4-24.13 230.12-27.4 228.87-29.85L228.87-29.85Q228.42-30.85 228.42-31.3L228.42-31.3Q228.42-31.95 229-32.55 229.57-33.15 230.42-33.58 231.27-34 232.07-34L232.07-34Q233.37-34 234.02-32.83 234.67-31.65 234.87-29.63 235.07-27.6 235.07-25L235.07-25Q235.07-21.05 234.75-18.15 234.42-15.25 234.12-13.05L234.12-13.05Q233.92-11.6 233.75-10.3 233.57-9 233.57-7.95L233.57-7.95Q233.57-6.2 234.15-5.43 234.72-4.65 236.02-3.9L236.02-3.9Q236.37-3.7 236.55-3.53 236.72-3.35 236.72-3L236.72-3Q236.72-2.6 236.32-1.75 235.92-0.9 234.95-0.2 233.97 0.5 232.27 0.5ZM247.82 0.65L247.82 0.65Q244.02 0.65 241.9-1.53 239.77-3.7 239.77-7.6L239.77-7.6Q239.77-11.15 241.32-14.05 242.87-16.95 245.5-18.68 248.12-20.4 251.27-20.4L251.27-20.4Q254.27-20.4 256.07-18.93 257.87-17.45 257.87-15L257.87-15Q257.87-13.05 256.67-11.4 255.47-9.75 253.47-8.78 251.47-7.8 249.02-7.8L249.02-7.8Q246.02-7.8 244.12-9.15L244.12-9.15Q244.17-6.85 245.7-5.45 247.22-4.05 249.62-4.05L249.62-4.05Q251.07-4.05 252.6-4.58 254.12-5.1 255.22-6L255.22-6Q255.92-6.6 256.52-6.6L256.52-6.6Q257.02-6.6 257.35-6.28 257.67-5.95 257.67-5.45L257.67-5.45Q257.67-4.35 255.77-2.55L255.77-2.55Q252.42 0.65 247.82 0.65ZM248.57-11.1L248.57-11.1Q250.37-11.1 251.57-11.85 252.77-12.6 252.77-13.75L252.77-13.75Q252.77-14.7 251.97-15.23 251.17-15.75 249.77-15.75L249.77-15.75Q247.92-15.75 246.55-14.78 245.17-13.8 244.57-12.05L244.57-12.05Q245.27-11.6 246.37-11.35 247.47-11.1 248.57-11.1Z" opacity="1" transform="matrix(1,0,0,1,0,0)" fill="#ff851b" class="slogan-text-1" data-fill-palette-color="secondary" id="text-1"></path></svg></g></svg></g></svg></g></svg></g><g><svg viewBox="0 0 228.31712111871363 228.31712111871363" height="228.31712111871363" width="228.31712111871363"><g><svg></svg></g><g id="icon-0"><svg viewBox="0 0 228.31712111871363 228.31712111871363" height="228.31712111871363" width="228.31712111871363"><g><path d="M0 114.159c0-63.048 51.111-114.159 114.159-114.159 63.048 0 114.159 51.111 114.158 114.159 0 63.048-51.111 114.159-114.158 114.158-63.048 0-114.159-51.111-114.159-114.158zM114.159 222.657c59.922 0 108.499-48.576 108.498-108.498 0-59.922-48.576-108.499-108.498-108.499-59.922 0-108.499 48.576-108.499 108.499 0 59.922 48.576 108.499 108.499 108.498z" data-fill-palette-color="accent" fill="#2ecc40" stroke="transparent"></path></g><g transform="matrix(1,0,0,1,47.67218750487014,46.08039985044353)"><svg viewBox="0 0 132.97274610897335 136.15632141782658" height="136.15632141782658" width="132.97274610897335"><g><svg xmlns="http://www.w3.org/2000/svg" xmlns:xlink="http://www.w3.org/1999/xlink" version="1.1" x="0" y="0" viewBox="4.999023549245447 4.999349531666914 87.79861445487073 89.9006504683331" enable-background="new 0 0 100 100" xml:space="preserve" height="136.15632141782658" width="132.97274610897335" class="icon-dxe-0" data-fill-palette-color="accent" id="dxe-0"><g fill="#2ecc40" data-fill-palette-color="accent"><g fill="#2ecc40" data-fill-palette-color="accent"><path fill="#2ecc40" d="M92.013 47.005L77.3 32.29V18.95A5.504 5.504 0 0 0 71.801 13.454H66.165A5.5 5.5 0 0 0 61.337 16.33L50.791 5.784A2.677 2.677 0 0 0 47.004 5.784L5.783 47.005A2.67 2.67 0 0 0 5.205 49.923 2.67 2.67 0 0 0 7.677 51.576H18.399V82.42C18.399 89.3 23.997 94.9 30.878 94.9H67.635C74.516 94.9 80.119 89.299 80.119 82.42V51.576H90.12A2.68 2.68 0 0 0 92.597 49.923 2.69 2.69 0 0 0 92.013 47.005M67.634 89.545H30.877A7.13 7.13 0 0 1 23.754 82.42V50.297C24.019 49.84 24.344 49.422 24.734 49.047H73.777C74.168 49.422 74.492 49.84 74.762 50.297V82.42C74.763 86.35 71.564 89.545 67.634 89.545M77.438 46.221C77.427 46.221 77.411 46.23 77.399 46.23H21.119C21.102 46.23 21.092 46.221 21.075 46.221H14.142L48.898 11.464 61.453 24.02A2.68 2.68 0 0 0 64.37 24.601 2.68 2.68 0 0 0 66.027 22.126L66.165 18.81 71.944 18.951V33.399C71.944 34.109 72.224 34.789 72.725 35.293L83.657 46.222H77.438z" data-fill-palette-color="accent"></path></g><g fill="#2ecc40" data-fill-palette-color="accent"><path fill="#2ecc40" d="M55.255 55.727H43.262A5.14 5.14 0 0 0 38.126 60.863V72.856A5.14 5.14 0 0 0 43.262 77.992H55.255A5.144 5.144 0 0 0 60.391 72.856V60.862A5.143 5.143 0 0 0 55.255 55.727M56.114 72.855A0.86 0.86 0 0 1 55.255 73.716H43.262A0.86 0.86 0 0 1 42.398 72.855V60.862A0.86 0.86 0 0 1 43.262 60.001H55.255A0.86 0.86 0 0 1 56.114 60.862z" data-fill-palette-color="accent"></path></g></g></svg></g></svg></g></svg></g></svg></g></svg></g><defs></defs></svg><rect width="395.52" height="138.19142164282823" fill="none" stroke="none" visibility="hidden"></rect></g></svg></g></svg>