<svg xmlns="http://www.w3.org/2000/svg" version="1.1" xmlns:xlink="http://www.w3.org/1999/xlink" xmlns:svgjs="http://svgjs.dev/svgjs" width="128" height="128" viewBox="0 0 128 128"><g transform="matrix(0.8046875,0,0,0.8046875,12.180516369751416,11.57528362215168)"><svg viewBox="0 0 94 96" data-background-color="#ffffff" preserveAspectRatio="xMidYMid meet" height="130" width="128" xmlns="http://www.w3.org/2000/svg" xmlns:xlink="http://www.w3.org/1999/xlink"><g id="tight-bounds" transform="matrix(1,0,0,1,0.37601671754988786,0.29785305914222704)"><svg viewBox="0 0 93.24848555704725 95.481" height="95.481" width="93.24848555704725"><g><svg viewBox="0 0 93.24848555704725 95.481" height="95.481" width="93.24848555704725"><g><svg viewBox="0 0 93.24848555704725 95.481" height="95.481" width="93.24848555704725"><g id="textblocktransform"><svg viewBox="0 0 93.24848555704725 95.481" height="95.481" width="93.24848555704725" id="textblock"><g><svg viewBox="0 0 93.24848555704725 95.481" height="95.481" width="93.24848555704725"><g><svg viewBox="0 0 93.24848555704725 95.481" height="95.481" width="93.24848555704725"><g><svg xmlns="http://www.w3.org/2000/svg" xmlns:xlink="http://www.w3.org/1999/xlink" version="1.1" x="0" y="0" viewBox="4.999023549245447 4.999349531666914 87.79861445487073 89.9006504683331" enable-background="new 0 0 100 100" xml:space="preserve" height="95.481" width="93.24848555704725" class="icon-icon-0" data-fill-palette-color="accent" id="icon-0"><g fill="#2ecc40" data-fill-palette-color="accent"><g fill="#2ecc40" data-fill-palette-color="accent"><path fill="#2ecc40" d="M92.013 47.005L77.3 32.29V18.95A5.504 5.504 0 0 0 71.801 13.454H66.165A5.5 5.5 0 0 0 61.337 16.33L50.791 5.784A2.677 2.677 0 0 0 47.004 5.784L5.783 47.005A2.67 2.67 0 0 0 5.205 49.923 2.67 2.67 0 0 0 7.677 51.576H18.399V82.42C18.399 89.3 23.997 94.9 30.878 94.9H67.635C74.516 94.9 80.119 89.299 80.119 82.42V51.576H90.12A2.68 2.68 0 0 0 92.597 49.923 2.69 2.69 0 0 0 92.013 47.005M67.634 89.545H30.877A7.13 7.13 0 0 1 23.754 82.42V50.297C24.019 49.84 24.344 49.422 24.734 49.047H73.777C74.168 49.422 74.492 49.84 74.762 50.297V82.42C74.763 86.35 71.564 89.545 67.634 89.545M77.438 46.221C77.427 46.221 77.411 46.23 77.399 46.23H21.119C21.102 46.23 21.092 46.221 21.075 46.221H14.142L48.898 11.464 61.453 24.02A2.68 2.68 0 0 0 64.37 24.601 2.68 2.68 0 0 0 66.027 22.126L66.165 18.81 71.944 18.951V33.399C71.944 34.109 72.224 34.789 72.725 35.293L83.657 46.222H77.438z" data-fill-palette-color="accent"></path></g><g fill="#2ecc40" data-fill-palette-color="accent"><path fill="#2ecc40" d="M55.255 55.727H43.262A5.14 5.14 0 0 0 38.126 60.863V72.856A5.14 5.14 0 0 0 43.262 77.992H55.255A5.144 5.144 0 0 0 60.391 72.856V60.862A5.143 5.143 0 0 0 55.255 55.727M56.114 72.855A0.86 0.86 0 0 1 55.255 73.716H43.262A0.86 0.86 0 0 1 42.398 72.855V60.862A0.86 0.86 0 0 1 43.262 60.001H55.255A0.86 0.86 0 0 1 56.114 60.862z" data-fill-palette-color="accent"></path></g></g></svg></g></svg></g></svg></g></svg></g></svg></g></svg></g><defs></defs></svg><rect width="93.24848555704725" height="95.481" fill="none" stroke="none" visibility="hidden"></rect></g></svg></g></svg>